<svg height="400" viewBox="0 0 400 400" width="400" xmlns="http://www.w3.org/2000/svg"><g fill-rule="evenodd"><path d="m198.453 87.394c-.212.766-.76 1.871-1.219 2.454s-.834 1.278-.834 1.544-.339.791-.753 1.166c-.414.374-1.059 1.482-1.433 2.462-.374.979-.837 1.78-1.028 1.78-.192 0-.718.765-1.169 1.7s-1.348 2.6-1.994 3.7-1.52 2.723-1.944 3.606c-.423.883-1.064 1.85-1.424 2.149-.36.298-.655.874-.655 1.278s-.428 1.147-.95 1.651c-.523.504-1.065 1.406-1.205 2.005s-.589 1.409-.997 1.8-.952 1.364-1.21 2.163c-.257.798-.821 1.771-1.253 2.162-.432.39-.785 1.017-.785 1.393s-.53 1.383-1.179 2.238c-.648.855-1.513 2.005-1.922 2.555-.41.55-.961 1.746-1.225 2.659-.265.912-.75 1.761-1.078 1.887s-.596.491-.596.811-.421 1.09-.936 1.712-1.12 1.671-1.345 2.331c-.417 1.228-2.022 3.893-3.034 5.04-.311.352-.765 1.215-1.011 1.919-.245.703-.812 1.744-1.26 2.314-.448.569-.814 1.219-.814 1.443 0 .225-.424.965-.942 1.646-.519.681-1.063 1.619-1.211 2.085-.147.466-.623 1.169-1.057 1.562-.435.393-.79.926-.79 1.184 0 .259-.526 1.266-1.169 2.238-.643.973-1.294 2.269-1.446 2.88-.152.61-.616 1.292-1.031 1.514s-.757.712-.761 1.089c-.007.651-1.452 3.11-3.108 5.286-.418.55-.89 1.528-1.049 2.173-.158.645-.726 1.694-1.262 2.331-.536.636-.974 1.414-.974 1.727s-.315.888-.7 1.278c-.385.391-1.42 2.123-2.3 3.85s-1.816 3.223-2.079 3.325c-.264.102-.774 1.07-1.133 2.151s-.815 1.965-1.015 1.965c-.199 0-.646.585-.993 1.3s-1.205 2.316-1.906 3.558c-.701 1.243-1.666 2.965-2.145 3.827-.479.863-1.154 1.804-1.5 2.091s-.629.825-.629 1.195c0 .371-.45 1.284-1 2.029s-1 1.566-1 1.823-.54 1.146-1.2 1.977-1.2 1.727-1.2 1.993-.332.784-.739 1.151c-.406.368-.956 1.396-1.222 2.284s-.733 1.71-1.037 1.827c-.304.116-.666.724-.803 1.349-.137.626-.663 1.556-1.167 2.067s-1.132 1.59-1.395 2.397-.739 1.684-1.057 1.949c-.319.265-.58.737-.58 1.05s-.433 1.003-.963 1.532c-.529.529-1.172 1.599-1.429 2.376-.256.778-.636 1.519-.843 1.647-.208.128-.651.888-.986 1.689-.334.801-.962 1.786-1.394 2.189-.432.402-.785 1.059-.785 1.461 0 .401-.495 1.367-1.1 2.146-1.421 1.831-2.522 3.741-3.161 5.488-.28.767-.75 1.577-1.043 1.8s-.766.977-1.051 1.676-.862 1.582-1.282 1.962c-.419.38-.763 1.023-.763 1.429s-.323 1.061-.717 1.455c-.395.395-.951 1.282-1.237 1.971-.285.69-.863 1.565-1.283 1.945-.419.38-.763 1.009-.763 1.398s-.425 1.216-.945 1.838-1.078 1.555-1.24 2.072c-.162.518-.727 1.578-1.255 2.356s-.96 1.653-.96 1.945c0 .291-.346.715-.768.941s-.989 1.087-1.258 1.914c-.27.827-.824 1.932-1.232 2.457s-.742 1.175-.742 1.445-.54 1.17-1.2 2.001-1.2 1.701-1.2 1.934c0 .379-.735 1.604-2.799 4.666-.371.55-.901 1.688-1.178 2.528s-.747 1.621-1.044 1.735-.736.8-.975 1.524-.787 1.636-1.219 2.027c-.432.39-.786.997-.787 1.348-.002.628-.218 1.002-2.595 4.484-.658.965-1.468 2.442-1.8 3.282-.619 1.569-2.291 2.776-4.503 3.251-.605.13-1.1.503-1.1.829 0 .325-.167.592-.371.592-.854 0-1.629 1.347-1.629 2.829 0 1.409-.103 1.571-1 1.571-.933 0-1 .133-1 2s-.067 2-1 2c-.788 0-1 .203-1 .957 0 .686-.282 1.027-1 1.207-.881.221-1 .465-1 2.044v1.792h11.751c9.541 0 12.021-.113 13.187-.6 2.181-.911 209.943-.911 212.124 0 1.174.491 3.757.6 14.179.6h12.744l.243-.971c.329-1.309-.109-2.537-1.005-2.822-.507-.161-.819-.788-1.004-2.019-.217-1.45-.45-1.831-1.243-2.03-.694-.174-.976-.521-.976-1.201 0-.749-.213-.957-.979-.957-.899 0-.989-.172-1.1-2.1-.105-1.829-.237-2.116-1.021-2.228-.64-.091-.9-.398-.9-1.061 0-.931-1.109-1.612-3.561-2.186-.6-.14-1.27-.828-1.78-1.825-.451-.88-1.129-1.825-1.507-2.1-.379-.276-.803-1.022-.943-1.659s-.604-1.475-1.032-1.862c-.427-.386-.777-.931-.777-1.21s-.424-1.016-.942-1.638-1.162-1.806-1.431-2.631-.614-1.5-.767-1.5-.632-.675-1.065-1.5-.996-1.634-1.25-1.797c-.255-.164-.68-1.199-.944-2.3-.293-1.222-.699-2.003-1.041-2.003-.308 0-.56-.155-.56-.344s-.475-1.044-1.056-1.9c-.58-.855-1.239-2.095-1.463-2.756-.225-.66-.83-1.709-1.345-2.331s-.936-1.374-.936-1.671c0-.298-.249-.79-.554-1.095-.304-.304-.979-1.32-1.5-2.258-.52-.937-1.438-2.546-2.04-3.575-.601-1.028-1.441-2.615-1.867-3.526-.425-.911-.983-1.786-1.239-1.944s-.819-1.033-1.25-1.944c-1.312-2.769-2.029-4.004-3.011-5.187-.516-.622-.939-1.47-.939-1.884 0-.415-.353-1.083-.785-1.485-.432-.403-1.06-1.388-1.394-2.189-.335-.801-.778-1.561-.986-1.689-.207-.128-.597-.906-.867-1.728s-.823-1.729-1.229-2.017c-.407-.287-.739-.768-.739-1.069s-.421-1.055-.936-1.677-1.12-1.671-1.345-2.331c-.224-.661-.883-1.901-1.463-2.756-.581-.856-1.056-1.801-1.056-2.1s-.186-.544-.414-.544-.781-.765-1.23-1.7c-1.316-2.744-2.569-4.935-3.493-6.111-.475-.603-.863-1.411-.863-1.794s-.299-.944-.665-1.246-1.014-1.269-1.441-2.149c-1.254-2.587-2.064-3.981-3.007-5.181-.488-.62-.89-1.328-.894-1.573s-.544-1.238-1.2-2.206-1.193-2.074-1.193-2.457c0-.384-.257-.796-.571-.916-.314-.121-.953-.995-1.42-1.943-1.47-2.985-2.339-4.504-2.929-5.124-.314-.33-.783-1.253-1.041-2.052-.258-.798-.822-1.771-1.254-2.162-.432-.39-.785-.938-.785-1.217s-.424-1.016-.942-1.638-1.155-1.784-1.415-2.583c-.26-.798-.826-1.771-1.258-2.162-.432-.39-.785-.854-.785-1.03s-.45-.984-1-1.794c-.55-.811-1-1.781-1-2.156s-.358-1.006-.795-1.401c-.437-.396-1.013-1.324-1.28-2.062-.267-.739-.636-1.343-.82-1.343-.183 0-.662-.768-1.065-1.706-.402-.938-1.014-1.94-1.36-2.227s-.74-1.031-.877-1.653-.588-1.438-1.003-1.814-.866-1.192-1.003-1.814-.535-1.368-.886-1.658c-.351-.291-.927-1.158-1.281-1.928-.613-1.333-.984-1.965-3.054-5.2-.493-.77-1.029-1.85-1.191-2.4s-.72-1.509-1.24-2.131-.945-1.359-.945-1.638-.353-.827-.785-1.217c-.432-.391-.996-1.364-1.253-2.162-.258-.799-.804-1.774-1.215-2.168-.411-.393-.747-.964-.747-1.269 0-.304-.45-1.088-1-1.742s-1-1.478-1-1.831-.323-.965-.717-1.359c-.395-.395-.967-1.34-1.273-2.1-.306-.761-.973-1.892-1.483-2.514s-.927-1.373-.927-1.669-.45-1.073-1-1.727-1-1.353-1-1.553c0-.201-.45-.975-1-1.72s-1-1.682-1-2.082c0-.399-.375-1.039-.833-1.422-.459-.383-1.108-1.371-1.444-2.196-.335-.825-.743-1.5-.906-1.5-.162 0-.602-.675-.977-1.5-.939-2.066-2.322-4.53-3.366-5.995-.481-.676-.874-1.391-.874-1.589s-.441-.958-.979-1.688c-.539-.729-1.093-1.844-1.232-2.477s-.427-1.151-.641-1.151-.647-.618-.962-1.373c-.316-.755-.758-1.486-.984-1.626-.225-.139-1.236-1.951-2.245-4.027-2.147-4.413-3.714-5.241-4.504-2.38" fill="#fcfbfb"/><path d="m172.48 49.68c-.264.264-.48.708-.48.988 0 .376-1.266.536-4.9.62-4.62.106-4.922.163-5.288.997-.344.783-.733.898-3.4 1-2.76.105-3.023.189-3.138.998-.114.804-.382.893-3 1-2.805.114-2.877.143-3.001 1.217-.126 1.097-.135 1.1-3.3 1.1-3.103 0-3.173.022-3.173.982 0 .943-.119.988-2.9 1.1-2.64.107-2.911.197-3.025.997-.106.742-.419.898-2 1-1.473.095-1.957.307-2.255.988-.275.625-.872.94-2.146 1.131-1.223.183-1.823.486-1.954.986-.136.52-.732.794-2.128.979-1.604.213-1.961.411-2.066 1.147-.09.634-.443.926-1.226 1.017-.864.099-1.1.335-1.1 1.1 0 .901-.148.973-2 .973-1.855 0-2 .071-2 .978 0 .883-.185.99-1.9 1.1-1.605.103-1.919.258-2.025.998-.087.613-.447.913-1.2 1-.762.088-1.112.386-1.203 1.024-.091.644-.397.9-1.074.9-1.637 0-2.998.722-2.998 1.59 0 .596-.263.81-.992.81-.725 0-1.06.269-1.244 1-.18.718-.521 1-1.207 1-.754 0-.957.212-.957 1 0 .8-.2 1-1 1-.786 0-1 .203-1 .948 0 .837-.237.98-2 1.214-1.587.211-2 .419-2 1.008 0 .458-.382.839-.994.993-.605.152-1.089.629-1.238 1.22-.147.589-.582 1.02-1.106 1.094-.532.076-.91.458-.987.998-.077.546-.454.923-1 1-.545.078-.922.455-1 1-.077.546-.454.923-1 1-.54.077-.922.455-.998.987-.074.524-.505.959-1.094 1.106-.591.149-1.068.633-1.22 1.238-.155.616-.535.994-.999.994-.446 0-.841.369-.978.915-.127.503-.625 1.088-1.108 1.3-.671.294-.907.786-1.001 2.085-.109 1.502-.237 1.7-1.1 1.7-.775 0-.977.206-.977 1 0 .8-.2 1-1 1-.844 0-1 .187-1 1.2 0 1.011-.156 1.2-.992 1.2-.715 0-1.06.269-1.234.962-.133.529-.572 1.049-.977 1.155-.519.135-.814.726-1.008 2.015-.218 1.454-.447 1.848-1.131 1.946-.524.074-.906.458-.981.984-.075.525-.505.959-1.1 1.108-.872.219-.977.458-.977 2.238 0 1.858-.067 1.992-1 1.992-.932 0-1 .135-1 1.973 0 1.856-.066 1.981-1.1 2.1-.788.091-1.136.383-1.228 1.027-.07.495-.379.9-.686.9-.779 0-1.386 1.291-1.386 2.946 0 1.146-.163 1.421-.9 1.526-.765.109-.918.408-1.02 1.99-.103 1.595-.261 1.897-1.1 2.107-.931.234-.98.397-.98 3.239 0 2.925-.022 2.992-1 2.992-.933 0-1 .133-1 2 0 1.659-.123 2-.72 2-1.283 0-1.68.869-1.68 3.68 0 2.635-.031 2.72-1 2.72-.983 0-1 .053-1 3.2s-.017 3.2-1 3.2c-1 0-1 .002-1 3.972 0 3.815-.036 3.977-.9 4.1-.872.124-.903.284-1.012 5.202-.108 4.897-.142 5.078-1 5.2l-.888.126v25.8 25.8l.888.126c.858.122.892.303 1 5.2.109 4.918.14 5.078 1.012 5.202.847.12.9.315.9 3.3 0 3.102.022 3.172.983 3.172.95 0 .987.106 1.1 3.1.108 2.85.188 3.11 1 3.226.804.114.893.382 1 3 .114 2.793.147 2.878 1.2 2.999s1.086.206 1.2 3c.103 2.521.225 2.923.999 3.262.691.303.907.779 1 2.2.1 1.532.257 1.833 1.018 1.941.729.103.9.383.9 1.467 0 1.83.355 2.605 1.191 2.605.547 0 .767.46.977 2.043.206 1.556.457 2.091 1.051 2.246.499.131.781.549.781 1.158 0 .789.203.953 1.179.953 1.14 0 1.183.069 1.3 2.1.105 1.829.237 2.116 1.021 2.228.778.11.9.367.9 1.892 0 1.549.122 1.795 1 2.016.718.18 1 .521 1 1.207 0 .74.215.957.948.957.837 0 .98.237 1.214 2 .244 1.836 2.238 3.262 2.238 1.6 0-.22.43-.4.957-.4.683 0 1.027-.282 1.204-.988.137-.544.606-1.18 1.044-1.415.52-.278.795-.837.795-1.615 0-.776.417-1.626 1.2-2.445.66-.691 1.2-1.428 1.2-1.639 0-.21.45-.917 1-1.571s1-1.547 1-1.984c0-.438.429-1.369.954-2.07.524-.7 1.073-1.669 1.22-2.153.147-.483.596-.983.997-1.111.469-.149.817-.772.972-1.741.143-.896.651-1.866 1.249-2.386.554-.482 1.008-1.21 1.008-1.617 0-.408.35-1.058.777-1.444.428-.387.892-1.227 1.033-1.866.14-.639.593-1.342 1.005-1.563.413-.221.87-1.04 1.017-1.82.159-.849.647-1.668 1.217-2.041.523-.343.951-.931.951-1.307 0-.377.45-1.107 1-1.624.61-.573 1-1.381 1-2.072 0-.704.371-1.456.98-1.986.539-.468 1.094-1.369 1.233-2 .139-.632.581-1.325.983-1.54.425-.227.844-1.055.999-1.971.175-1.038.599-1.797 1.236-2.214.533-.35.969-.96.969-1.356 0-.397.45-1.144 1-1.661s1-1.344 1-1.839.423-1.408.939-2.03c.517-.622 1.057-1.614 1.201-2.204.144-.591.621-1.188 1.061-1.327.439-.14.8-.467.801-.727.007-1.429.889-3.404 1.604-3.591.479-.125.794-.546.794-1.061 0-.47.372-1.252.827-1.738.456-.486.928-1.375 1.049-1.977.122-.602.648-1.555 1.17-2.117.521-.563 1.06-1.47 1.197-2.017.137-.546.588-1.175 1.003-1.397s.754-.743.754-1.158c0-.416.425-1.264.945-1.886s1.085-1.581 1.255-2.131.735-1.509 1.255-2.131.945-1.48.945-1.908c0-.442.432-.975 1-1.234.77-.35 1-.756 1-1.763 0-1.247.836-2.564 1.629-2.564.204 0 .371-.361.371-.803 0-.441.45-1.194 1-1.672.602-.523 1-1.296 1-1.942 0-.59.54-1.752 1.2-2.583s1.2-1.751 1.2-2.046c0-.294.45-.83 1-1.191.738-.484 1-1.007 1-2s.262-1.516 1-2c.55-.36 1-.963 1-1.339 0-.377.45-1.107 1-1.624s1-1.344 1-1.839.455-1.44 1.01-2.1c.556-.661 1.204-1.755 1.44-2.431.235-.677.681-1.23.989-1.23.309 0 .562-.225.563-.5.007-1.423.9-3.479 1.61-3.704.434-.138.788-.605.788-1.041 0-.435.45-1.241 1-1.791s1-1.428 1-1.951c0-.524.45-1.486 1-2.14s1-1.396 1-1.649.436-.896.969-1.429 1.094-1.38 1.246-1.882.603-1.273 1.001-1.713c.399-.44.855-1.325 1.014-1.966s.668-1.598 1.13-2.126.936-1.353 1.053-1.834.612-1.052 1.1-1.269c.527-.235.887-.751.887-1.274 0-1.4.726-2.931 1.39-2.931.372 0 .61-.363.61-.93 0-.512.441-1.345.979-1.851.539-.505 1.102-1.482 1.252-2.169.15-.688.699-1.759 1.221-2.381.521-.622.948-1.481.948-1.91 0-.463.406-.933 1-1.159.8-.304 1-.656 1-1.762 0-1.309.82-2.638 1.629-2.638.204 0 .371-.256.371-.569s.45-1.104 1-1.758 1-1.649 1-2.213c0-.563.443-1.466.984-2.007s1.098-1.44 1.238-1.997c.14-.558.687-1.298 1.216-1.644.66-.433.962-1.005.962-1.824 0-.774.351-1.499 1-2.063.55-.478 1-1.165 1-1.527s.45-1.081 1-1.598 1-1.277 1-1.689.424-1.146.941-1.63c.518-.485 1.064-1.546 1.214-2.358.178-.967.545-1.564 1.059-1.727.432-.138.786-.573.786-.969 0-.395.537-1.328 1.194-2.073.656-.745 1.196-1.735 1.2-2.2.003-.465.362-1.299.798-1.853s.978-1.495 1.205-2.093c.227-.597.77-1.179 1.208-1.293.596-.156.795-.547.795-1.565 0-.962.349-1.723 1.2-2.613.66-.691 1.2-1.471 1.2-1.734 0-.264.342-.789.76-1.167.419-.379.872-1.282 1.008-2.007.136-.726.597-1.636 1.025-2.022.427-.387.975-1.303 1.217-2.036s.788-1.444 1.215-1.579c.54-.171.775-.61.775-1.445 0-2.027.633-2.747 2.414-2.747 1.839 0 3.186 1.08 3.186 2.554 0 .575.396 1.213.996 1.607.675.442 1.079 1.167 1.251 2.246.159.992.47 1.593.825 1.593.313 0 .832.63 1.154 1.4s.733 1.4.915 1.4c.436 0 1.259 1.833 1.259 2.805 0 .422.346.952.768 1.178s.99 1.087 1.261 1.914c.272.827.812 1.728 1.201 2.003.388.276.821 1.022.961 1.659s.604 1.475 1.032 1.862c.427.386.777 1.036.777 1.444 0 .407.454 1.135 1.008 1.617.601.522 1.106 1.49 1.251 2.397.141.882.468 1.521.778 1.521.686 0 1.363 1.265 1.363 2.547 0 .644.281 1.088.791 1.25.49.156.951.845 1.212 1.812.231.859.762 1.801 1.18 2.094s.886 1.034 1.04 1.647.507 1.202.784 1.308.725.987.997 1.956c.289 1.032.787 1.856 1.202 1.988.73.232 1.179 1.326 1.189 2.898.003.629.244.9.799.9.609 0 .901.424 1.251 1.813.255 1.011.788 1.991 1.206 2.214.416.223.749.832.749 1.373 0 .565.338 1.152.806 1.403.461.247 1.007 1.183 1.276 2.188.29 1.084.742 1.827 1.183 1.942.474.124.8.732.973 1.815.175 1.094.507 1.708 1.01 1.867.413.131.864.691 1.003 1.245s.679 1.434 1.201 1.955c.521.522.948 1.405.948 1.963 0 .587.342 1.228.81 1.519.446.276.992 1.175 1.214 1.996s.757 1.683 1.19 1.914c.432.232.786.75.786 1.152s.54 1.41 1.2 2.241 1.2 1.836 1.2 2.235.244.869.542 1.045c.721.426 1.458 1.875 1.458 2.867 0 .448.352.911.801 1.053.529.168.95.844 1.238 1.991.287 1.14.699 1.804 1.199 1.935.488.128.762.552.762 1.182 0 .54.54 1.661 1.2 2.492s1.2 1.802 1.2 2.159.344.863.764 1.126c.42.262.894 1.07 1.052 1.796.159.725.715 1.715 1.236 2.2.575.534.948 1.335.948 2.036 0 .843.269 1.277 1 1.61.55.251 1 .792 1 1.202 0 .411.353 1.067.785 1.457.432.391.996 1.364 1.253 2.162.258.799.802 1.772 1.21 2.163s.862 1.201 1.009 1.8.689 1.485 1.205 1.97c.642.603.938 1.328.938 2.3 0 1.148.151 1.419.792 1.419.533 0 .881.361 1.063 1.1.148.605.691 1.496 1.207 1.981.516.484.938 1.335.938 1.891 0 .636.371 1.252 1.003 1.667.666.436 1.084 1.167 1.246 2.174.155.973.494 1.583.942 1.701.422.11.804.734.961 1.57.143.764.707 1.808 1.254 2.322.547.513.994 1.254.994 1.646 0 .391.45 1.162 1 1.712.561.561 1 1.463 1 2.055 0 .722.255 1.123.806 1.267.554.144.946.765 1.251 1.975.245.971.761 1.935 1.148 2.142s.827.876.979 1.486c.151.611.601 1.471 1 1.911.398.44.861 1.25 1.027 1.8.167.55.637 1.235 1.045 1.522s.854 1.227.992 2.089c.166 1.039.503 1.647 1.002 1.805.478.152.915.885 1.199 2.011.263 1.045.677 1.773 1.008 1.773.31 0 .672.546.806 1.214.133.668.573 1.391.976 1.607s.956 1.138 1.23 2.05c.273.912.909 2.071 1.414 2.575.504.505.917 1.376.917 1.936 0 .627.225 1.018.586 1.018.758 0 1.414 1.243 1.414 2.679 0 .788.272 1.251.898 1.526.493.217.965.755 1.048 1.194s.579 1.196 1.102 1.681c.613.568.952 1.329.952 2.138 0 .928.213 1.313.815 1.47.561.147.966.779 1.3 2.026.29 1.083.758 1.885 1.162 1.99.373.098.801.744.952 1.437.151.692.701 1.768 1.223 2.39.521.622.948 1.378.948 1.682 0 .303.45 1.001 1 1.551s1 1.437 1 1.972c0 .594.387 1.226.996 1.625.668.437 1.079 1.167 1.246 2.211.16 1.002.497 1.623.943 1.74.392.103.803.73.946 1.445.139.695.707 1.717 1.261 2.271.554.555 1.008 1.379 1.008 1.833 0 .453.45 1.178 1 1.61.644.507 1 1.188 1 1.915 0 .867.229 1.185.994 1.377.598.15 1.089.629 1.233 1.203.452 1.799 2.173 1.623 2.173-.221 0-1.381.106-1.545 1-1.545.792 0 1-.202 1-.972 0-.704.249-1.008.9-1.1.766-.109.918-.407 1.021-2.003.11-1.704.22-1.887 1.2-2 1.001-.116 1.088-.277 1.2-2.225.111-1.928.201-2.1 1.1-2.1.77 0 .979-.207.979-.972 0-.704.249-1.008.9-1.1.765-.109.918-.408 1.02-1.99.103-1.595.261-1.897 1.1-2.107.876-.22.98-.458.98-2.239 0-1.858.067-1.992 1-1.992.977 0 1-.068 1-2.973 0-2.947.01-2.975 1.1-3.1 1.024-.118 1.108-.27 1.22-2.202.104-1.788.241-2.092 1-2.2.8-.114.891-.385.997-2.999.107-2.618.196-2.886 1-3 .812-.116.892-.376 1-3.226.113-2.994.15-3.1 1.1-3.1.982 0 .983-.006.983-4.2v-4.2h1 1v-5.2-5.2h.957c1.46 0 1.443.298 1.443-25.183 0-25.712-.03-26.308-1.346-26.495-.812-.116-.86-.364-.966-5.037-.111-4.812-.133-4.922-1.1-5.29-.93-.353-.988-.553-.988-3.385 0-2.944-.022-3.01-1-3.01-.983 0-1-.053-1-3.2 0-3.132-.021-3.2-.983-3.2-.95 0-.987-.106-1.1-3.1-.108-2.869-.184-3.11-1.017-3.228-.78-.111-.905-.377-.94-2-.058-2.744-.462-3.853-1.456-3.997-.721-.105-.882-.431-.983-2-.103-1.596-.255-1.894-1.021-2.003-.755-.107-.9-.375-.9-1.667 0-2.056-.332-2.805-1.243-2.805-.595 0-.757-.292-.757-1.367 0-1.871-.352-2.633-1.216-2.633-.5 0-.771-.348-.857-1.1-.09-.779-.384-1.137-1.006-1.225-.742-.106-.898-.419-1-2-.11-1.703-.22-1.886-1.2-2-.98-.113-1.09-.296-1.2-2-.102-1.579-.259-1.895-.997-2-.613-.087-.913-.447-1-1.2s-.387-1.112-1.002-1.2c-.721-.102-.9-.426-1-1.8-.093-1.273-.333-1.767-1-2.06-.483-.212-.981-.797-1.108-1.3-.162-.646-.521-.915-1.222-.915-.836 0-.992-.189-.992-1.2 0-1.013-.156-1.2-1-1.2-.8 0-1-.2-1-1 0-.794-.202-1-.977-1-.863 0-.991-.198-1.1-1.7-.095-1.313-.328-1.79-1.023-2.095-.552-.242-.9-.745-.9-1.3 0-.688-.23-.905-.957-.905-.685 0-1.027-.282-1.206-.994-.152-.605-.629-1.089-1.22-1.238-.589-.147-1.02-.582-1.094-1.106-.076-.532-.458-.91-.998-.987-.546-.077-.923-.454-1-1-.078-.545-.455-.922-1-1-.546-.077-.923-.454-1-1-.075-.523-.454-.922-.944-.992-.48-.069-1.003-.606-1.265-1.3-.298-.79-.724-1.183-1.281-1.183-.563 0-.835-.256-.835-.786 0-.642-.368-.835-2-1.052-1.763-.234-2-.377-2-1.214 0-.745-.214-.948-1-.948-.8 0-1-.2-1-1 0-.788-.203-1-.957-1-.679 0-1.027-.282-1.2-.972-.153-.607-.583-1.021-1.144-1.1-.574-.082-.945-.45-1.025-1.018-.105-.737-.462-.934-2.079-1.148-1.586-.211-1.975-.419-2.074-1.111-.074-.521-.46-.899-.996-.976-.546-.077-.923-.454-1-1-.105-.737-.421-.894-2-.996-1.581-.102-1.894-.258-2-1-.108-.759-.411-.895-2.225-1-1.928-.111-2.1-.201-2.1-1.1 0-.778-.206-.979-1-.979-.788 0-1-.203-1-.957 0-1.11-.653-1.443-2.833-1.443-1.271 0-1.567-.143-1.567-.757 0-.886-.747-1.243-2.605-1.243-1.084 0-1.364-.171-1.467-.9-.118-.833-.359-.909-3.228-1.017-2.994-.113-3.1-.15-3.1-1.1 0-.913-.142-.983-2-.983-1.867 0-2-.067-2-1 0-.983-.055-1-3.173-1-3.165 0-3.174-.003-3.3-1.1-.124-1.074-.196-1.103-3.001-1.217-2.618-.107-2.886-.196-3-1-.119-.836-.343-.889-4.226-.997-4.06-.113-4.1-.124-4.1-1.1v-.986h-5.2-5.2v-1-1h-25.52c-19.316 0-25.637.117-26 .48m-81.68 260.512c0 .719.269 1.06.977 1.238.595.149 1.025.583 1.1 1.108.075.527.458.91.985.985.525.075.959.505 1.108 1.1.175.698.521.977 1.21.977.696 0 1 .251 1.092.9.109.768.407.918 2.028 1.022 1.715.11 1.9.217 1.9 1.1 0 .769.208.978.973.978s1.001.236 1.1 1.1c.089.771.385 1.137.989 1.223.525.075.959.505 1.108 1.1.169.673.525.977 1.143.977.547 0 1.051.351 1.292.9.305.695.782.928 2.095 1.023 1.502.109 1.7.237 1.7 1.1 0 .75.212.977.912.977.647 0 1.045.35 1.366 1.2.411 1.089.619 1.2 2.259 1.2 1.57 0 1.824.118 1.935.9.109.768.407.918 2.028 1.022 1.715.11 1.9.217 1.9 1.1 0 .765.209.978.957.978.686 0 1.027.282 1.207 1 .226.899.452 1 2.244 1 1.858 0 1.992.067 1.992 1s.133 1 2 1c1.843 0 2 .075 2 .957 0 1.206.631 1.443 3.833 1.443 2.471 0 2.567.037 2.567 1 0 .931.135 1 1.972 1 1.741 0 1.987.106 2.1.9.118.833.359.909 3.228 1.017 2.994.113 3.1.15 3.1 1.1 0 .956.082.983 2.972.983 2.778 0 2.981.059 3.1.9.122.857.321.905 4.203 1.014l4.075.113.125 1.087.125 1.086 5.01.111c4.741.106 5.031.159 5.4 1l.39.889 23.8.117c25.586.125 27.177.059 27.492-1.148.18-.689.588-.769 3.905-.769 4.949 0 6.155-.268 6.448-1.435.216-.862.467-.942 3.294-1.049 2.829-.107 3.071-.184 3.189-1.016.119-.841.322-.9 3.1-.9 2.903 0 2.972-.023 2.972-1 0-.983.053-1 3.2-1s3.2-.017 3.2-1c0-.914.15-1 1.75-1 2.797 0 4.25-.41 4.25-1.198 0-.536.464-.761 1.996-.964 1.67-.221 2.035-.422 2.238-1.231.207-.824.517-.984 2.104-1.087 1.568-.101 1.882-.259 1.987-.999.106-.742.419-.898 2-1 1.497-.097 1.955-.303 2.27-1.021.242-.552.745-.9 1.3-.9.694 0 .905-.229.905-.979 0-.899.172-.989 2.1-1.1 1.797-.104 2.118-.245 2.222-.979.097-.68.491-.913 1.899-1.124 1.441-.216 1.822-.45 2.021-1.242.174-.694.521-.976 1.201-.976.754 0 .957-.212.957-1 0-.872.176-1 1.367-1 1.885 0 2.633-.353 2.633-1.243 0-.539.285-.757.992-.757.719 0 1.06-.269 1.238-.977.149-.595.583-1.025 1.108-1.1.604-.086.9-.452.989-1.223.099-.864.335-1.1 1.1-1.1s.973-.209.973-.978c0-.883.185-.99 1.9-1.1 1.621-.104 1.919-.254 2.028-1.022.092-.649.396-.9 1.092-.9.689 0 1.035-.279 1.21-.977.149-.595.583-1.025 1.108-1.1.527-.075.91-.458.985-.985.075-.525.505-.959 1.1-1.108.708-.178.977-.519.977-1.238v-.992h-108.2-108.2z" fill="#fc345c"/><path d="m197.614 83.574c-.228.425-.414 1.313-.414 1.973 0 .835-.235 1.274-.775 1.445-.427.135-.973.846-1.215 1.579s-.79 1.649-1.217 2.036c-.428.386-.889 1.296-1.025 2.022-.136.725-.589 1.628-1.008 2.007-.418.378-.76.903-.76 1.167 0 .263-.54 1.043-1.2 1.734-.851.89-1.2 1.651-1.2 2.613 0 1.018-.199 1.409-.795 1.565-.438.114-.981.696-1.208 1.293-.227.598-.769 1.539-1.205 2.093s-.795 1.388-.798 1.853c-.004.465-.544 1.455-1.2 2.2-.657.745-1.194 1.678-1.194 2.073 0 .396-.354.831-.786.969-.514.163-.881.76-1.059 1.727-.15.812-.696 1.873-1.214 2.358-.517.484-.941 1.218-.941 1.63s-.45 1.172-1 1.689-1 1.236-1 1.598-.45 1.049-1 1.527c-.649.564-1 1.289-1 2.063 0 .819-.302 1.391-.962 1.824-.529.346-1.076 1.086-1.216 1.644-.14.557-.697 1.456-1.238 1.997s-.984 1.444-.984 2.007c0 .564-.45 1.559-1 2.213s-1 1.445-1 1.758-.167.569-.371.569c-.809 0-1.629 1.329-1.629 2.638 0 1.106-.2 1.458-1 1.762-.594.226-1 .696-1 1.159 0 .429-.427 1.288-.948 1.91-.522.622-1.071 1.693-1.221 2.381-.15.687-.713 1.664-1.252 2.169-.538.506-.979 1.339-.979 1.851 0 .567-.238.93-.61.93-.664 0-1.39 1.531-1.39 2.931 0 .523-.36 1.039-.887 1.274-.488.217-.983.788-1.1 1.269s-.591 1.306-1.053 1.834-.971 1.485-1.13 2.126-.615 1.526-1.014 1.966c-.398.44-.849 1.211-1.001 1.713s-.713 1.349-1.246 1.882-.969 1.176-.969 1.429-.45.995-1 1.649-1 1.616-1 2.14c0 .523-.45 1.401-1 1.951s-1 1.356-1 1.791c0 .436-.354.903-.788 1.041-.71.225-1.603 2.281-1.61 3.704-.001.275-.254.5-.563.5-.308 0-.754.553-.989 1.23-.236.676-.884 1.77-1.44 2.431-.555.66-1.01 1.605-1.01 2.1s-.45 1.322-1 1.839-1 1.247-1 1.624c0 .376-.45.979-1 1.339-.738.484-1 1.007-1 2s-.262 1.516-1 2c-.55.361-1 .897-1 1.191 0 .295-.54 1.215-1.2 2.046s-1.2 1.993-1.2 2.583c0 .646-.398 1.419-1 1.942-.55.478-1 1.231-1 1.672 0 .442-.167.803-.371.803-.793 0-1.629 1.317-1.629 2.564 0 1.007-.23 1.413-1 1.763-.568.259-1 .792-1 1.234 0 .428-.425 1.286-.945 1.908s-1.085 1.581-1.255 2.131-.735 1.509-1.255 2.131-.945 1.47-.945 1.886c0 .415-.339.936-.754 1.158s-.866.851-1.003 1.397c-.137.547-.676 1.454-1.197 2.017-.522.562-1.048 1.515-1.17 2.117-.121.602-.593 1.491-1.049 1.977-.455.486-.827 1.268-.827 1.738 0 .515-.315.936-.794 1.061-.715.187-1.597 2.162-1.604 3.591-.001.26-.362.587-.801.727-.44.139-.917.736-1.061 1.327-.144.59-.684 1.582-1.201 2.204-.516.622-.939 1.535-.939 2.03s-.45 1.322-1 1.839-1 1.264-1 1.661c0 .396-.436 1.006-.969 1.356-.637.417-1.061 1.176-1.236 2.214-.155.916-.574 1.744-.999 1.971-.402.215-.844.908-.983 1.54-.139.631-.694 1.532-1.233 2-.609.53-.98 1.282-.98 1.986 0 .691-.39 1.499-1 2.072-.55.517-1 1.247-1 1.624 0 .376-.428.964-.951 1.307-.57.373-1.058 1.192-1.217 2.041-.147.78-.604 1.599-1.017 1.82-.412.221-.865.924-1.005 1.563-.141.639-.605 1.479-1.033 1.866-.427.386-.777 1.036-.777 1.444 0 .407-.454 1.135-1.008 1.617-.598.52-1.106 1.49-1.249 2.386-.155.969-.503 1.592-.972 1.741-.401.128-.85.628-.997 1.111-.147.484-.696 1.453-1.22 2.153-.525.701-.954 1.632-.954 2.07 0 .437-.45 1.33-1 1.984s-1 1.361-1 1.571c0 .211-.54.948-1.2 1.639-.783.819-1.2 1.669-1.2 2.445 0 .778-.275 1.337-.795 1.615-.438.235-.907.871-1.044 1.415-.173.69-.523.988-1.162.988-.502 0-1.006.242-1.12.538-.952 2.481 3.312-.943 4.525-3.633.42-.932 1.465-2.645 2.323-3.806s1.7-2.558 1.873-3.105c.172-.547.738-1.621 1.256-2.387.519-.766.944-1.599.944-1.851s.295-.703.655-1.001c.36-.299.975-1.291 1.367-2.205.391-.914.902-1.779 1.134-1.923.231-.143.787-1.018 1.234-1.944.447-.925 1.343-2.583 1.99-3.683s1.446-2.554 1.775-3.232c.33-.677.868-1.455 1.196-1.727.329-.273.708-.999.843-1.614.135-.614.687-1.501 1.226-1.969.539-.469.98-1.2.98-1.625 0-.424.425-1.28.945-1.902s1.085-1.581 1.255-2.131.735-1.509 1.255-2.131.945-1.406.945-1.742.45-1.146 1-1.8 1-1.413 1-1.688.433-.906.962-1.403 1.074-1.5 1.21-2.23c.137-.729.53-1.559.873-1.843.343-.285.892-1.189 1.22-2.009.329-.821.83-1.582 1.115-1.691.284-.109.644-.708.799-1.331.155-.622.943-2.098 1.751-3.278 2.002-2.924 1.972-2.873 2.662-4.454.336-.77 1.14-2.21 1.788-3.2s1.527-2.542 1.953-3.448c.427-.907.972-1.769 1.21-1.917.239-.147.807-1.026 1.262-1.952.455-.925 1.351-2.583 1.99-3.683.64-1.1 1.538-2.72 1.996-3.6 1.193-2.295 2.529-4.428 3.322-5.304.378-.418.687-1.035.687-1.372s.45-1.275 1-2.086c.55-.81 1-1.632 1-1.825s.424-.86.943-1.482 1.324-1.941 1.79-2.931c.972-2.065 1.505-2.938 2.767-4.528.495-.623.9-1.455.9-1.849 0-.393.399-1.222.887-1.842 1.004-1.277 1.879-2.771 3.15-5.381.482-.99 1.006-1.89 1.164-2s.607-.83.997-1.6c.391-.77.942-1.536 1.225-1.702.283-.167.628-.82.767-1.451.138-.632.692-1.746 1.231-2.475.538-.73.979-1.491.979-1.692 0-.2.45-.899 1-1.553s1-1.431 1-1.727.425-1.047.945-1.669 1.081-1.581 1.246-2.131c.166-.55.611-1.36.99-1.8s.915-1.372 1.191-2.071.834-1.573 1.242-1.942c.407-.368.852-1.179.989-1.801s.498-1.338.802-1.59c.305-.253.758-1.077 1.007-1.831.248-.754.798-1.556 1.22-1.782s.768-.74.768-1.141c0-.402.412-1.34.915-2.086s1.149-1.928 1.436-2.627.866-1.582 1.286-1.962c.419-.38.763-1.009.763-1.398s.41-1.216.911-1.838c1.651-2.048 3.089-4.364 3.089-4.973 0-.329.765-1.739 1.7-3.133s1.831-2.735 1.99-2.98c.16-.245.566-1.075.902-1.845s1.143-2.21 1.794-3.2c1.261-1.917 2.36-3.864 3.86-6.84.51-1.012 1.204-2.069 1.541-2.349s.613-.743.613-1.029.416-1.029.923-1.651c.508-.622 1.621-2.571 2.473-4.331s1.737-3.326 1.966-3.479c.403-.27 1.311-1.884 3.025-5.378.447-.912 1.057-1.751 1.356-1.866.299-.114.658-.782.798-1.482.14-.701.706-1.811 1.257-2.466.551-.654 1.002-1.413 1.002-1.684 0-.272.321-.843.713-1.27.393-.426.978-1.475 1.3-2.331 1.059-2.809 3.425-2.767 4.85.084.365.73.928 1.63 1.253 2 .324.369.725 1.122.891 1.672.167.55.728 1.509 1.248 2.131s1.051 1.554 1.181 2.071.464 1.028.743 1.135.613.725.743 1.373.695 1.724 1.257 2.392c.561.667 1.021 1.399 1.021 1.625s.425.92.945 1.542 1.081 1.581 1.248 2.131c.166.55.529 1.27.808 1.6.49.582 1.616 2.573 3.139 5.552.407.796 1.061 1.808 1.454 2.248s.85 1.25 1.015 1.8c.166.55.636 1.429 1.046 1.954s.745 1.168.745 1.43.423.874.941 1.361c.517.486 1.155 1.597 1.416 2.469s.634 1.586.828 1.586.556.616.804 1.368c.249.752.737 1.605 1.086 1.894.349.29.983 1.249 1.41 2.132 1.526 3.159 2.525 4.937 3.184 5.666.368.407.789 1.222.936 1.811.147.588.611 1.381 1.031 1.762.42.38.764.908.764 1.174s.54 1.162 1.2 1.993 1.2 1.907 1.2 2.393.375 1.222.833 1.637 1.096 1.297 1.418 1.962c.576 1.19 1.785 3.317 3.749 6.597 2.064 3.447 3.208 5.464 4.091 7.211.5.99 1.019 1.89 1.153 2s.559.813.943 1.562c.384.75 1.039 1.729 1.456 2.176.416.447.757 1.125.757 1.507 0 .381.425 1.202.945 1.824s1.085 1.581 1.255 2.131.735 1.509 1.255 2.131.945 1.332.945 1.578c0 .401.716 1.601 2.799 4.691.371.55.897 1.675 1.169 2.5s.67 1.5.886 1.5c.215 0 .739.786 1.164 1.747s1.027 1.958 1.338 2.217c.311.258.687.956.834 1.552.148.596.593 1.444.988 1.884.751.836 1.41 1.985 2.866 5 .478.99 1.065 1.926 1.303 2.079.424.274 1.457 2.12 2.981 5.327.419.883 1.057 1.85 1.417 2.149.36.298.655.756.655 1.016 0 .261.441 1.071.979 1.801.539.729 1.093 1.846 1.233 2.481.139.634.556 1.316.927 1.514.371.199.912 1.018 1.202 1.821.29.802 1.216 2.495 2.057 3.761.841 1.267 1.828 2.921 2.192 3.677 1.175 2.434 2.462 4.66 3.347 5.785.475.603.863 1.362.863 1.685 0 .324.45 1.123 1 1.777s1 1.418 1 1.699.45.997 1 1.59c.55.594 1 1.408 1 1.81 0 .401.28.963.623 1.247.343.285.891 1.159 1.219 1.944.328.784.925 1.789 1.328 2.232.402.443.942 1.464 1.2 2.27.258.805.685 1.548.949 1.65.265.103 1.192 1.604 2.061 3.336.87 1.732 1.831 3.452 2.137 3.821.63.761 1.66 2.553 2.858 4.975.449.906 1.088 1.873 1.42 2.149.333.276.605.723.605.993s.537 1.283 1.193 2.251 1.196 2.069 1.2 2.446.346.867.761 1.089.879.902 1.032 1.512c.291 1.161 1.824 3.811 3.259 5.638.465.591.986 1.525 1.157 2.075s.736 1.627 1.254 2.393c.519.766.944 1.599.944 1.851s.295.703.655 1.001c.36.299.995 1.266 1.411 2.149 1.681 3.567 4.734 7.056 4.734 5.411 0-.551-1.201-1.605-1.829-1.605-.365 0-.571-.423-.571-1.171 0-.773-.34-1.439-1-1.958-.55-.432-1-1.157-1-1.61 0-.454-.454-1.278-1.008-1.833-.554-.554-1.122-1.576-1.261-2.271-.143-.715-.554-1.342-.946-1.445-.446-.117-.783-.738-.943-1.74-.167-1.044-.578-1.774-1.246-2.211-.609-.399-.996-1.031-.996-1.625 0-.535-.45-1.422-1-1.972s-1-1.248-1-1.551c0-.304-.427-1.06-.948-1.682-.522-.622-1.072-1.698-1.223-2.39-.151-.693-.579-1.339-.952-1.437-.404-.105-.872-.907-1.162-1.99-.334-1.247-.739-1.879-1.3-2.026-.602-.157-.815-.542-.815-1.47 0-.809-.339-1.57-.952-2.138-.523-.485-1.019-1.242-1.102-1.681s-.555-.977-1.048-1.194c-.626-.275-.898-.738-.898-1.526 0-1.436-.656-2.679-1.414-2.679-.361 0-.586-.391-.586-1.018 0-.56-.413-1.431-.917-1.936-.505-.504-1.141-1.663-1.414-2.575-.274-.912-.827-1.834-1.23-2.05s-.843-.939-.976-1.607c-.134-.668-.496-1.214-.806-1.214-.331 0-.745-.728-1.008-1.773-.284-1.126-.721-1.859-1.199-2.011-.499-.158-.836-.766-1.002-1.805-.138-.862-.584-1.802-.992-2.089s-.878-.972-1.045-1.522c-.166-.55-.629-1.36-1.027-1.8-.399-.44-.849-1.3-1-1.911-.152-.61-.592-1.279-.979-1.486s-.903-1.171-1.148-2.142c-.305-1.21-.697-1.831-1.251-1.975-.551-.144-.806-.545-.806-1.267 0-.592-.439-1.494-1-2.055-.55-.55-1-1.321-1-1.712 0-.392-.447-1.133-.994-1.646-.547-.514-1.111-1.558-1.254-2.322-.157-.836-.539-1.46-.961-1.57-.448-.118-.787-.728-.942-1.701-.162-1.007-.58-1.738-1.246-2.174-.632-.415-1.003-1.031-1.003-1.667 0-.556-.422-1.407-.938-1.891-.516-.485-1.059-1.376-1.207-1.981-.182-.739-.53-1.1-1.063-1.1-.641 0-.792-.271-.792-1.419 0-.972-.296-1.697-.938-2.3-.516-.485-1.058-1.371-1.205-1.97s-.601-1.409-1.009-1.8-.952-1.364-1.21-2.163c-.257-.798-.821-1.771-1.253-2.162-.432-.39-.785-1.046-.785-1.457 0-.41-.45-.951-1-1.202-.731-.333-1-.767-1-1.61 0-.701-.373-1.502-.948-2.036-.521-.485-1.077-1.475-1.236-2.2-.158-.726-.632-1.534-1.052-1.796-.42-.263-.764-.769-.764-1.126s-.54-1.328-1.2-2.159-1.2-1.952-1.2-2.492c0-.63-.274-1.054-.762-1.182-.5-.131-.912-.795-1.199-1.935-.288-1.147-.709-1.823-1.238-1.991-.449-.142-.801-.605-.801-1.053 0-.992-.737-2.441-1.458-2.867-.298-.176-.542-.646-.542-1.045s-.54-1.404-1.2-2.235-1.2-1.839-1.2-2.241-.354-.92-.786-1.152c-.433-.231-.968-1.093-1.19-1.914s-.768-1.72-1.214-1.996c-.468-.291-.81-.932-.81-1.519 0-.558-.427-1.441-.948-1.963-.522-.521-1.062-1.401-1.201-1.955s-.59-1.114-1.003-1.245c-.503-.159-.835-.773-1.01-1.867-.173-1.083-.499-1.691-.973-1.815-.441-.115-.893-.858-1.183-1.942-.269-1.005-.815-1.941-1.276-2.188-.468-.251-.806-.838-.806-1.403 0-.541-.333-1.15-.749-1.373-.418-.223-.951-1.203-1.206-2.214-.35-1.389-.642-1.813-1.251-1.813-.555 0-.796-.271-.799-.9-.01-1.572-.459-2.666-1.189-2.898-.415-.132-.913-.956-1.202-1.988-.272-.969-.72-1.85-.997-1.956s-.63-.695-.784-1.308-.622-1.354-1.04-1.647-.949-1.235-1.18-2.094c-.261-.967-.722-1.656-1.212-1.812-.51-.162-.791-.606-.791-1.25 0-1.282-.677-2.547-1.363-2.547-.31 0-.637-.639-.778-1.521-.145-.907-.65-1.875-1.251-2.397-.554-.482-1.008-1.21-1.008-1.617 0-.408-.35-1.058-.777-1.444-.428-.387-.892-1.225-1.032-1.862s-.573-1.383-.961-1.659c-.389-.275-.929-1.176-1.201-2.003-.271-.827-.839-1.688-1.261-1.914s-.768-.756-.768-1.178c0-.972-.823-2.805-1.259-2.805-.182 0-.593-.63-.915-1.4s-.841-1.4-1.154-1.4c-.355 0-.666-.601-.825-1.593-.172-1.079-.576-1.804-1.251-2.246-.6-.394-.996-1.032-.996-1.607 0-2.243-4.172-3.675-5.186-1.78m125.061 207.885c.482.105.967.494 1.077.866.146.486.179.451.121-.125-.055-.543-.401-.821-1.077-.866-.835-.054-.854-.034-.121.125m-176.143 17.641c29.003.057 76.343.057 105.2 0s5.128-.103-52.732-.103-81.471.046-52.468.103" fill="#fc4c6c"/><path d="m198.259 84.865c-.332.514-.727 1.43-.875 2.035-.149.605-.411 1.1-.583 1.1s-.677.775-1.123 1.722c-.445.948-1.09 1.956-1.433 2.241-.343.284-.741 1.144-.885 1.909-.144.766-.508 1.487-.811 1.603-.302.116-.915.956-1.362 1.868-1.714 3.494-2.622 5.108-3.025 5.378-.229.153-1.114 1.719-1.966 3.479s-1.965 3.709-2.473 4.331c-.507.622-.923 1.365-.923 1.651s-.276.749-.613 1.029-1.031 1.337-1.541 2.349c-1.5 2.976-2.599 4.923-3.86 6.84-.651.99-1.458 2.43-1.794 3.2s-.742 1.6-.902 1.845c-.159.245-1.055 1.586-1.99 2.98s-1.7 2.804-1.7 3.133c0 .609-1.438 2.925-3.089 4.973-.501.622-.911 1.449-.911 1.838s-.344 1.018-.763 1.398c-.42.38-.999 1.263-1.286 1.962s-.933 1.881-1.436 2.627-.915 1.684-.915 2.086c0 .401-.346.915-.768 1.141s-.972 1.028-1.22 1.782c-.249.754-.702 1.578-1.007 1.831-.304.252-.665.968-.802 1.59s-.582 1.433-.989 1.801c-.408.369-.966 1.243-1.242 1.942s-.812 1.631-1.191 2.071-.824 1.25-.99 1.8c-.165.55-.726 1.509-1.246 2.131s-.945 1.373-.945 1.669-.45 1.073-1 1.727-1 1.353-1 1.553c0 .201-.441.962-.979 1.692-.539.729-1.093 1.843-1.231 2.475-.139.631-.484 1.284-.767 1.451-.283.166-.834.932-1.225 1.702-.39.77-.839 1.49-.997 1.6s-.682 1.01-1.164 2c-1.271 2.61-2.146 4.104-3.15 5.381-.488.62-.887 1.449-.887 1.842 0 .394-.405 1.226-.9 1.849-1.262 1.59-1.795 2.463-2.767 4.528-.466.99-1.271 2.309-1.79 2.931s-.943 1.289-.943 1.482-.45 1.015-1 1.825c-.55.811-1 1.749-1 2.086s-.309.954-.687 1.372c-.793.876-2.129 3.009-3.322 5.304-.458.88-1.356 2.5-1.996 3.6-.639 1.1-1.535 2.758-1.99 3.683-.455.926-1.023 1.805-1.262 1.952-.238.148-.783 1.01-1.21 1.917-.426.906-1.305 2.458-1.953 3.448s-1.452 2.43-1.788 3.2c-.69 1.581-.66 1.53-2.662 4.454-.808 1.18-1.596 2.656-1.751 3.278-.155.623-.515 1.222-.799 1.331-.285.109-.786.87-1.115 1.691-.328.82-.877 1.724-1.22 2.009-.343.284-.736 1.114-.873 1.843-.136.73-.681 1.733-1.21 2.23s-.962 1.128-.962 1.403-.45 1.034-1 1.688-1 1.464-1 1.8-.425 1.12-.945 1.742-1.085 1.581-1.255 2.131-.735 1.509-1.255 2.131-.945 1.478-.945 1.902c0 .425-.441 1.156-.98 1.625-.539.468-1.091 1.355-1.226 1.969-.135.615-.514 1.341-.843 1.614-.328.272-.866 1.05-1.196 1.727-.329.678-1.128 2.132-1.775 3.232s-1.543 2.758-1.99 3.683c-.447.926-1.003 1.801-1.234 1.944-.232.144-.743 1.009-1.134 1.923-.392.914-1.007 1.906-1.367 2.205-.36.298-.655.749-.655 1.001s-.425 1.085-.944 1.851c-.518.766-1.084 1.84-1.256 2.387-.173.547-1.015 1.944-1.873 3.105s-1.903 2.874-2.323 3.806c-.976 2.166-2.446 3.777-3.655 4.006l-.949.18.916.055c1.248.074 3.128-1.392 3.725-2.903.27-.684 1.253-2.413 2.185-3.843s2.446-4.028 3.363-5.773 2.015-3.615 2.44-4.154c.424-.54.771-1.202.771-1.473s.399-.999.887-1.619c.98-1.247 1.929-2.858 2.931-4.981.364-.77.897-1.67 1.184-2s1.296-2.13 2.241-4c.946-1.87 2.029-3.625 2.407-3.9.378-.276.805-1.039.949-1.696s.419-1.291.61-1.41c.292-.18 2.218-3.493 5.254-9.038.365-.666.947-1.525 1.295-1.91.348-.384.84-1.316 1.094-2.072s.722-1.677 1.042-2.046c.588-.682 1.387-2.035 2.907-4.928.463-.88 1.372-2.41 2.021-3.4.648-.99 1.567-2.61 2.041-3.6.831-1.735 1.181-2.317 3.045-5.06.471-.693.971-1.715 1.11-2.27.14-.556.604-1.328 1.032-1.716.429-.387 1.14-1.435 1.581-2.329s1.326-2.525 1.967-3.625c.642-1.1 1.454-2.54 1.805-3.2.352-.66 1.255-2.19 2.008-3.4.752-1.21 1.737-2.92 2.189-3.8s1.443-2.59 2.203-3.8 1.674-2.83 2.031-3.6c.358-.77 1.419-2.57 2.359-4s1.843-3.05 2.006-3.6c.162-.55.561-1.303.885-1.672.624-.711 1.675-2.507 2.677-4.574.332-.685 1.347-2.363 2.255-3.73s1.915-3.056 2.238-3.754c.324-.699 1.204-2.26 1.957-3.47.752-1.21 1.745-3.01 2.207-4s1.096-1.944 1.411-2.12c.314-.176.571-.499.571-.719 0-.357.911-2.04 4.479-8.275.594-1.037 1.442-2.651 1.886-3.586s.973-1.7 1.177-1.7.676-.675 1.049-1.5c.608-1.343 1.607-3.196 3.969-7.36.418-.737 1.543-2.53 2.5-3.985s1.741-2.895 1.743-3.2c.001-.305.901-1.874 2-3.486 1.099-1.613 2.115-3.413 2.26-4 .144-.588.603-1.519 1.021-2.069 1.332-1.755 2.766-4.091 4.412-7.187.881-1.657 1.743-3.104 1.917-3.214.173-.111.62-.966.994-1.9.374-.935.821-1.699.995-1.699.173 0 1.07-1.485 1.994-3.3s1.914-3.57 2.201-3.9c.492-.567 1.449-2.306 2.752-5 .319-.66.956-1.633 1.416-2.161.459-.529.835-1.165.835-1.414 0-.248.638-1.436 1.419-2.638.78-1.203 1.96-3.313 2.621-4.689 1.758-3.656 3.129-3.292 5.661 1.502.755 1.43 1.949 3.5 2.652 4.6.704 1.1 1.729 2.9 2.28 4 .55 1.1 1.529 2.81 2.175 3.8.647.99 1.584 2.552 2.084 3.47 2.91 5.352 4.882 8.803 5.33 9.33.281.33 1.165 1.858 1.965 3.396.799 1.538 1.782 3.158 2.184 3.6s.946 1.476 1.209 2.298.664 1.609.89 1.749.673.818.992 1.506 1.196 2.241 1.949 3.451c.752 1.21 1.708 2.923 2.124 3.806s1.039 1.84 1.385 2.127.74 1.031.877 1.653.598 1.448 1.026 1.835c.427.386.777.883.777 1.103s.424.957.942 1.638c.519.681 1.077 1.688 1.24 2.238.281.943.845 1.911 3.218 5.522.55.836 1 1.712 1 1.946 0 .233.358.879.795 1.435.438.556 1.539 2.426 2.448 4.154.908 1.729 1.878 3.413 2.154 3.743.277.33 1.291 1.997 2.253 3.704.963 1.708 2.2 3.883 2.75 4.834s1.429 2.524 1.954 3.495c.524.972 1.102 1.863 1.284 1.981s.621.907.974 1.754c.354.847.963 2.011 1.353 2.586 2.165 3.191 2.835 4.351 2.835 4.906 0 .339.344.927.763 1.307.42.38.989 1.263 1.265 1.962s.812 1.631 1.191 2.071.82 1.25.981 1.8.619 1.36 1.019 1.8.921 1.25 1.158 1.8c.419.977.829 1.688 4.323 7.508.935 1.557 1.7 3.011 1.7 3.231s.409.908.909 1.53 1.23 1.761 1.623 2.531c.394.77 1.235 2.3 1.871 3.4s1.527 2.72 1.98 3.6c.454.88 1.36 2.41 2.013 3.4.652.99 1.65 2.7 2.216 3.8 1.625 3.16 2.468 4.604 3.111 5.328.329.369.895 1.302 1.259 2.072.841 1.781 1.881 3.634 2.847 5.072.417.62 1.077 1.758 1.467 2.528s1.149 2.12 1.687 3c.537.88 1.294 2.23 1.68 3 .387.77 1.01 1.76 1.383 2.2.374.44 1.429 2.24 2.344 4 1.821 3.505 3.355 6.178 3.901 6.8.193.22 1.664 2.785 3.27 5.7s3.078 5.3 3.272 5.3c.193 0 .466.495.605 1.1.234 1.014 1.117 2.584 3.042 5.407.415.609 1.118 1.869 1.562 2.8 1.178 2.472 2.202 4.256 2.881 5.021.329.369.889 1.302 1.246 2.072 1.333 2.88 2.59 4.535 3.844 5.062 1.14.48 1.231.473.789-.06-.275-.331-.734-.602-1.021-.602-.536 0-1.971-2.17-3.312-5.006-.418-.883-1.054-1.85-1.414-2.149-.36-.298-.655-.749-.655-1.001s-.425-1.085-.944-1.851c-.518-.766-1.083-1.843-1.254-2.393s-.692-1.484-1.157-2.075c-1.435-1.827-2.968-4.477-3.259-5.638-.153-.61-.617-1.29-1.032-1.512s-.757-.712-.761-1.089-.544-1.478-1.2-2.446-1.193-1.981-1.193-2.251-.272-.717-.605-.993c-.332-.276-.971-1.243-1.42-2.149-1.198-2.422-2.228-4.214-2.858-4.975-.306-.369-1.267-2.089-2.137-3.821-.869-1.732-1.796-3.233-2.061-3.336-.264-.102-.691-.845-.949-1.65-.258-.806-.798-1.827-1.2-2.27-.403-.443-1-1.448-1.328-2.232-.328-.785-.876-1.659-1.219-1.944-.343-.284-.623-.846-.623-1.247 0-.402-.45-1.216-1-1.81-.55-.593-1-1.309-1-1.59s-.45-1.045-1-1.699-1-1.453-1-1.777c0-.323-.388-1.082-.863-1.685-.885-1.125-2.172-3.351-3.347-5.785-.364-.756-1.351-2.41-2.192-3.677-.841-1.266-1.767-2.959-2.057-3.761-.29-.803-.831-1.622-1.202-1.821-.371-.198-.788-.88-.927-1.514-.14-.635-.694-1.752-1.233-2.481-.538-.73-.979-1.54-.979-1.801 0-.26-.295-.718-.655-1.016-.36-.299-.998-1.266-1.417-2.149-1.524-3.207-2.557-5.053-2.981-5.327-.238-.153-.825-1.089-1.303-2.079-1.456-3.015-2.115-4.164-2.866-5-.395-.44-.84-1.288-.988-1.884-.147-.596-.523-1.294-.834-1.552-.311-.259-.913-1.256-1.338-2.217s-.949-1.747-1.164-1.747c-.216 0-.614-.675-.886-1.5s-.798-1.95-1.169-2.5c-2.083-3.09-2.799-4.29-2.799-4.691 0-.246-.425-.956-.945-1.578s-1.085-1.581-1.255-2.131-.735-1.509-1.255-2.131-.945-1.443-.945-1.824c0-.382-.341-1.06-.757-1.507-.417-.447-1.072-1.426-1.456-2.176-.384-.749-.809-1.452-.943-1.562s-.653-1.01-1.153-2c-.883-1.747-2.027-3.764-4.091-7.211-1.964-3.28-3.173-5.407-3.749-6.597-.322-.665-.96-1.547-1.418-1.962s-.833-1.151-.833-1.637-.54-1.562-1.2-2.393-1.2-1.727-1.2-1.993-.344-.794-.764-1.174c-.42-.381-.884-1.174-1.031-1.762-.147-.589-.568-1.404-.936-1.811-.659-.729-1.658-2.507-3.184-5.666-.427-.883-1.061-1.842-1.41-2.132-.349-.289-.837-1.142-1.086-1.894-.248-.752-.61-1.368-.804-1.368s-.567-.714-.828-1.586-.899-1.983-1.416-2.469c-.518-.487-.941-1.099-.941-1.361s-.335-.905-.745-1.43-.88-1.404-1.046-1.954c-.165-.55-.622-1.36-1.015-1.8s-1.047-1.452-1.454-2.248c-1.523-2.979-2.649-4.97-3.139-5.552-.279-.33-.642-1.05-.808-1.6-.167-.55-.728-1.509-1.248-2.131s-.945-1.316-.945-1.542-.46-.958-1.021-1.625c-.562-.668-1.127-1.744-1.257-2.392s-.464-1.266-.743-1.373-.613-.618-.743-1.135-.674-1.461-1.21-2.098-1.092-1.627-1.236-2.201-.606-1.355-1.026-1.736c-.42-.38-.764-.923-.764-1.207 0-1.959-3.564-3.604-4.541-2.095m-51.791 223.835c28.747.057 75.907.057 104.8 0s5.372-.103-52.268-.103-81.279.046-52.532.103" fill="#fc8ca4"/><path d="m197.64 87.298c-.661 1.376-1.841 3.486-2.621 4.689-.781 1.202-1.419 2.39-1.419 2.638 0 .249-.376.885-.835 1.414-.46.528-1.097 1.501-1.416 2.161-1.303 2.694-2.26 4.433-2.752 5-.287.33-1.277 2.085-2.201 3.9s-1.821 3.3-1.994 3.3c-.174 0-.621.764-.995 1.699-.374.934-.821 1.789-.994 1.9-.174.11-1.036 1.557-1.917 3.214-1.646 3.096-3.08 5.432-4.412 7.187-.418.55-.877 1.481-1.021 2.069-.145.587-1.161 2.387-2.26 4-1.099 1.612-1.999 3.181-2 3.486-.002.305-.786 1.745-1.743 3.2s-2.082 3.248-2.5 3.985c-2.362 4.164-3.361 6.017-3.969 7.36-.373.825-.845 1.5-1.049 1.5s-.733.765-1.177 1.7-1.292 2.549-1.886 3.586c-3.568 6.235-4.479 7.918-4.479 8.275 0 .22-.257.543-.571.719-.315.176-.949 1.13-1.411 2.12s-1.455 2.79-2.207 4c-.753 1.21-1.633 2.771-1.957 3.47-.323.698-1.33 2.387-2.238 3.754s-1.923 3.045-2.255 3.73c-1.002 2.067-2.053 3.863-2.677 4.574-.324.369-.723 1.122-.885 1.672-.163.55-1.066 2.17-2.006 3.6s-2.001 3.23-2.359 4c-.357.77-1.271 2.39-2.031 3.6s-1.751 2.92-2.203 3.8-1.437 2.59-2.189 3.8c-.753 1.21-1.656 2.74-2.008 3.4-.351.66-1.163 2.1-1.805 3.2-.641 1.1-1.526 2.731-1.967 3.625s-1.152 1.942-1.581 2.329c-.428.388-.892 1.16-1.032 1.716-.139.555-.639 1.577-1.11 2.27-1.864 2.743-2.214 3.325-3.045 5.06-.474.99-1.393 2.61-2.041 3.6-.649.99-1.558 2.52-2.021 3.4-1.52 2.893-2.319 4.246-2.907 4.928-.32.369-.788 1.29-1.042 2.046s-.746 1.688-1.094 2.072c-.348.385-.93 1.244-1.295 1.91-3.036 5.545-4.962 8.858-5.254 9.038-.191.119-.466.753-.61 1.41s-.571 1.42-.949 1.696c-.378.275-1.461 2.03-2.407 3.9-.945 1.87-1.954 3.67-2.241 4s-.82 1.23-1.184 2c-1.002 2.123-1.951 3.734-2.931 4.981-.488.62-.887 1.348-.887 1.619s-.347.933-.771 1.473c-.425.539-1.523 2.409-2.44 4.154s-2.431 4.343-3.363 5.773-1.915 3.159-2.185 3.843c-.601 1.523-2.456 2.957-3.825 2.957-.559 0-1.016.176-1.016.39 0 1.545 5.004-1.183 5.625-3.067.259-.783 1.034-2.227 1.723-3.208 2.208-3.145 2.648-3.902 2.65-4.553.001-.351.355-.958.787-1.348.432-.391.98-1.303 1.219-2.027s.678-1.41.975-1.524.767-.895 1.044-1.735.807-1.978 1.178-2.528c2.064-3.062 2.799-4.287 2.799-4.666 0-.233.54-1.103 1.2-1.934s1.2-1.731 1.2-2.001.334-.92.742-1.445.962-1.63 1.232-2.457c.269-.827.836-1.688 1.258-1.914s.768-.65.768-.941c0-.292.432-1.167.96-1.945s1.093-1.838 1.255-2.356c.162-.517.72-1.45 1.24-2.072s.945-1.449.945-1.838.344-1.018.763-1.398c.42-.38.998-1.255 1.283-1.945.286-.689.842-1.576 1.237-1.971.394-.394.717-1.049.717-1.455s.344-1.049.763-1.429c.42-.38.997-1.263 1.282-1.962s.758-1.453 1.051-1.676.763-1.033 1.043-1.8c.639-1.747 1.74-3.657 3.161-5.488.605-.779 1.1-1.745 1.1-2.146 0-.402.353-1.059.785-1.461.432-.403 1.06-1.388 1.394-2.189.335-.801.778-1.561.986-1.689.207-.128.587-.869.843-1.647.257-.777.9-1.847 1.429-2.376.53-.529.963-1.219.963-1.532s.261-.785.58-1.05c.318-.265.794-1.142 1.057-1.949s.891-1.886 1.395-2.397 1.03-1.441 1.167-2.067c.137-.625.499-1.233.803-1.349.304-.117.771-.939 1.037-1.827s.816-1.916 1.222-2.284c.407-.367.739-.885.739-1.151s.54-1.162 1.2-1.993 1.2-1.72 1.2-1.977.45-1.078 1-1.823 1-1.658 1-2.029c0-.37.283-.908.629-1.195s1.021-1.228 1.5-2.091c.479-.862 1.444-2.584 2.145-3.827.701-1.242 1.559-2.843 1.906-3.558s.794-1.3.993-1.3c.2 0 .656-.884 1.015-1.965s.869-2.049 1.133-2.151c.263-.102 1.199-1.598 2.079-3.325s1.915-3.459 2.3-3.85c.385-.39.7-.965.7-1.278s.438-1.091.974-1.727c.536-.637 1.104-1.686 1.262-2.331.159-.645.631-1.623 1.049-2.173 1.656-2.176 3.101-4.635 3.108-5.286.004-.377.346-.867.761-1.089s.879-.904 1.031-1.514c.152-.611.803-1.907 1.446-2.88.643-.972 1.169-1.979 1.169-2.238 0-.258.355-.791.79-1.184.434-.393.91-1.096 1.057-1.562.148-.466.692-1.404 1.211-2.085.518-.681.942-1.421.942-1.646 0-.224.366-.874.814-1.443.448-.57 1.015-1.611 1.26-2.314.246-.704.7-1.567 1.011-1.919 1.012-1.147 2.617-3.812 3.034-5.04.225-.66.83-1.709 1.345-2.331s.936-1.392.936-1.712.268-.685.596-.811.813-.975 1.078-1.887c.264-.913.815-2.109 1.225-2.659.409-.55 1.274-1.7 1.922-2.555.649-.855 1.179-1.862 1.179-2.238s.353-1.003.785-1.393c.432-.391.996-1.364 1.253-2.162.258-.799.802-1.772 1.21-2.163s.857-1.201.997-1.8.682-1.501 1.205-2.005c.522-.504.95-1.247.95-1.651s.295-.98.655-1.278c.36-.299 1.001-1.266 1.424-2.149.424-.883 1.298-2.506 1.944-3.606s1.543-2.765 1.994-3.7.977-1.7 1.169-1.7c.191 0 .654-.801 1.028-1.78.374-.98 1.019-2.088 1.433-2.462.414-.375.753-.9.753-1.166s.375-.961.834-1.544 1.007-1.688 1.219-2.454c.79-2.861 2.357-2.033 4.504 2.38 1.009 2.076 2.02 3.888 2.245 4.027.226.14.668.871.984 1.626.315.755.748 1.373.962 1.373s.502.518.641 1.151.693 1.748 1.232 2.477c.538.73.979 1.49.979 1.688s.393.913.874 1.589c1.044 1.465 2.427 3.929 3.366 5.995.375.825.815 1.5.977 1.5.163 0 .571.675.906 1.5.336.825.985 1.813 1.444 2.196.458.383.833 1.023.833 1.422 0 .4.45 1.337 1 2.082s1 1.519 1 1.72c0 .2.45.899 1 1.553s1 1.431 1 1.727.417 1.047.927 1.669 1.177 1.753 1.483 2.514c.306.76.878 1.705 1.273 2.1.394.394.717 1.006.717 1.359s.45 1.177 1 1.831 1 1.438 1 1.742c0 .305.336.876.747 1.269.411.394.957 1.369 1.215 2.168.257.798.821 1.771 1.253 2.162.432.39.785.938.785 1.217s.425 1.016.945 1.638 1.078 1.581 1.24 2.131.698 1.63 1.191 2.4c2.07 3.235 2.441 3.867 3.054 5.2.354.77.93 1.637 1.281 1.928.351.29.749 1.036.886 1.658s.588 1.438 1.003 1.814.866 1.192 1.003 1.814.531 1.366.877 1.653.958 1.289 1.36 2.227c.403.938.882 1.706 1.065 1.706.184 0 .553.604.82 1.343.267.738.843 1.666 1.28 2.062.437.395.795 1.026.795 1.401s.45 1.345 1 2.156c.55.81 1 1.618 1 1.794s.353.64.785 1.03c.432.391.998 1.364 1.258 2.162.26.799.897 1.961 1.415 2.583s.942 1.359.942 1.638.353.827.785 1.217c.432.391.996 1.364 1.254 2.162.258.799.727 1.722 1.041 2.052.59.62 1.459 2.139 2.929 5.124.467.948 1.106 1.822 1.42 1.943.314.12.571.532.571.916 0 .383.537 1.489 1.193 2.457s1.196 1.961 1.2 2.206.406.953.894 1.573c.943 1.2 1.753 2.594 3.007 5.181.427.88 1.075 1.847 1.441 2.149s.665.863.665 1.246.388 1.191.863 1.794c.924 1.176 2.177 3.367 3.493 6.111.449.935 1.002 1.7 1.23 1.7s.414.245.414.544.475 1.244 1.056 2.1c.58.855 1.239 2.095 1.463 2.756.225.66.83 1.709 1.345 2.331s.936 1.376.936 1.677.332.782.739 1.069c.406.288.959 1.195 1.229 2.017s.66 1.6.867 1.728c.208.128.651.888.986 1.689.334.801.962 1.786 1.394 2.189.432.402.785 1.07.785 1.485 0 .414.423 1.262.939 1.884.982 1.183 1.699 2.418 3.011 5.187.431.911.994 1.786 1.25 1.944s.814 1.033 1.239 1.944c.426.911 1.266 2.498 1.867 3.526.602 1.029 1.52 2.638 2.04 3.575.521.938 1.196 1.954 1.5 2.258.305.305.554.797.554 1.095 0 .297.421 1.049.936 1.671s1.12 1.671 1.345 2.331c.224.661.883 1.901 1.463 2.756.581.856 1.056 1.711 1.056 1.9s.252.344.56.344c.342 0 .748.781 1.041 2.003.264 1.101.689 2.136.944 2.3.254.163.817.972 1.25 1.797s.912 1.5 1.065 1.5.498.675.767 1.5.913 2.009 1.431 2.631.942 1.359.942 1.638.35.824.777 1.21c.428.387.892 1.225 1.032 1.862s.564 1.383.943 1.659c.378.275 1.055 1.22 1.505 2.1.552 1.082 1.128 1.645 1.78 1.738.53.076 1.143.273 1.363.438.687.515 1.8.814 1.8.484 0-.174-.93-.795-2.068-1.381-2.045-1.054-3.103-2.324-4.563-5.479-.357-.77-.917-1.703-1.246-2.072-.679-.765-1.703-2.549-2.881-5.021-.444-.931-1.147-2.191-1.562-2.8-1.925-2.823-2.808-4.393-3.042-5.407-.139-.605-.412-1.1-.605-1.1-.194 0-1.666-2.385-3.272-5.3s-3.077-5.48-3.27-5.7c-.546-.622-2.08-3.295-3.901-6.8-.915-1.76-1.97-3.56-2.344-4-.373-.44-.996-1.43-1.383-2.2-.386-.77-1.143-2.12-1.68-3-.538-.88-1.297-2.23-1.687-3s-1.05-1.908-1.467-2.528c-.966-1.438-2.006-3.291-2.847-5.072-.364-.77-.93-1.703-1.259-2.072-.643-.724-1.486-2.168-3.111-5.328-.566-1.1-1.564-2.81-2.216-3.8-.653-.99-1.559-2.52-2.013-3.4-.453-.88-1.344-2.5-1.98-3.6s-1.477-2.63-1.871-3.4c-.393-.77-1.123-1.909-1.623-2.531s-.909-1.31-.909-1.53-.765-1.674-1.7-3.231c-3.494-5.82-3.904-6.531-4.323-7.508-.237-.55-.758-1.36-1.158-1.8s-.858-1.25-1.019-1.8-.602-1.36-.981-1.8-.915-1.372-1.191-2.071-.845-1.582-1.265-1.962c-.419-.38-.763-.968-.763-1.307 0-.555-.67-1.715-2.835-4.906-.39-.575-.999-1.739-1.353-2.586-.353-.847-.792-1.636-.974-1.754s-.76-1.009-1.284-1.981c-.525-.971-1.404-2.544-1.954-3.495s-1.787-3.126-2.75-4.834c-.962-1.707-1.976-3.374-2.253-3.704-.276-.33-1.246-2.014-2.154-3.743-.909-1.728-2.01-3.598-2.448-4.154-.437-.556-.795-1.202-.795-1.435 0-.234-.45-1.11-1-1.946-2.373-3.611-2.937-4.579-3.218-5.522-.163-.55-.721-1.557-1.24-2.238-.518-.681-.942-1.418-.942-1.638s-.35-.717-.777-1.103c-.428-.387-.889-1.213-1.026-1.835s-.531-1.366-.877-1.653-.969-1.244-1.385-2.127-1.372-2.596-2.124-3.806c-.753-1.21-1.63-2.763-1.949-3.451s-.766-1.366-.992-1.506-.627-.927-.89-1.749-.807-1.856-1.209-2.298-1.385-2.062-2.184-3.6c-.8-1.538-1.684-3.066-1.965-3.396-.448-.527-2.42-3.978-5.33-9.33-.5-.918-1.437-2.48-2.084-3.47-.646-.99-1.625-2.7-2.175-3.8-.551-1.1-1.576-2.9-2.28-4-.703-1.1-1.897-3.17-2.652-4.6-2.532-4.794-3.903-5.158-5.661-1.502m-104.64 221.322-1.2.585 1.2-.303c1.569-.395 210.431-.395 212 0l1.2.303-1.2-.585c-1.815-.883-210.185-.883-212 0" fill="#fc9cac"/></g></svg>